<?xml version="1.0" standalone="no"?><!DOCTYPE svg PUBLIC "-//W3C//DTD SVG 1.1//EN" "http://www.w3.org/Graphics/SVG/1.1/DTD/svg11.dtd"><svg t="1679648171560" class="icon" viewBox="0 0 1024 1024" version="1.1" xmlns="http://www.w3.org/2000/svg" p-id="2951" id="mx_n_1679648171561" xmlns:xlink="http://www.w3.org/1999/xlink" width="200" height="200"><path d="M946.304 273.16 737.188 132.614c-9.288-6.152-20.73-6.152-30.062 0l-194.188 130.39-194.218-130.39c-9.286-6.152-20.888-6.152-30.124 0L78.688 273.16c-8.798 5.898-14.688 16.544-14.688 28.1L64 863.2c0 11.808 6.14 22.694 15.326 28.542 9.24 5.754 20.764 5.658 29.808-0.446l194.376-130.394 194.362 130.394c9.332 6.2 20.88 6.2 30.168 0l194.316-130.394 194.302 130.394c4.622 3.1 9.824 4.706 15.076 4.706 4.91 0 9.418-1.494 13.938-4.26 9.188-5.848 14.33-16.732 14.33-28.542l0-561.94C960 289.704 955.15 279.058 946.304 273.16zM270 706.496l-142 98.808 0-483.5 142-98.856L270 706.496zM334 705.532l0-245.4c2.334 1.512 4.62 3.052 6.778 4.602l18.666-25.992c-7.808-5.608-16.584-11.002-25.444-15.41L334 221.984l146 97.984 0 217.148c-10.744-3.71-21.172-8.74-31.786-15.364l-16.942 27.148c13.696 8.546 27.242 14.934 41.408 19.53l7.32-22.572 0 257.612L334 705.532zM544 803.468 544 576.738c0.698-0.042 1.386-0.06 2.086-0.108 5.82-0.396 11.554-1.034 17.036-1.892l-4.958-31.614c-4.536 0.71-9.3 1.238-14.164 1.572L544 319.968l146-97.984L690 459.56l-9.688-8.744c-5.994 6.638-11.666 13.15-17.15 19.45-3.612 4.146-7.156 8.216-10.678 12.19l23.948 21.226c3.582-4.042 7.19-8.182 10.862-12.4 0.886-1.018 1.81-2.07 2.708-3.098l0 217.35L544 803.468zM896 803.304l-142-96.876 0-273.82c7.57-3.43 15.358-5.984 23.278-7.584l-6.332-31.366c-5.716 1.154-11.374 2.678-16.946 4.562l0-175.342 142 96.922L896 803.304z" p-id="2952" fill="#b7b7b7"></path><path d="M258.57 442.222c4.436-2.39-2.706-2.142 2.024-3.674l-9.856-30.444c-6.564 2.124-13.004 4.878-19.142 8.186-7.648 4.124-15.49 9.832-22.678 16.506l21.776 23.448C235.926 451.388 253.278 445.076 258.57 442.222z" p-id="2953" fill="#b7b7b7"></path><path d="M593.604 532.254l13.97 28.79c13.192-6.402 25.684-14.89 38.19-25.948l-21.198-23.974C614.27 520.226 604.142 527.138 593.604 532.254z" p-id="2954" fill="#b7b7b7"></path><path d="M198.728 512.012c3.786-11.852 7.056-22.088 14.258-32.608l-26.408-18.074c-9.848 14.388-14.162 27.888-18.334 40.942l-0.484 1.516 30.476 9.758L198.728 512.012z" p-id="2955" fill="#b7b7b7"></path><path d="M396.622 475.506c-2.014-2.408-4.028-4.816-6.064-7.206l-24.356 20.758c1.972 2.312 3.922 4.644 5.872 6.976 7.186 8.592 14.616 17.478 23.22 25.618l21.992-23.248C410.04 491.55 403.522 483.756 396.622 475.506z" p-id="2956" fill="#b7b7b7"></path><path d="M816.312 459.314 837 438.628 857.688 459.314 880.312 436.684 859.628 416 880.312 395.314 857.688 372.684 837 393.37 816.312 372.684 793.688 395.314 814.372 416 793.688 436.684Z" p-id="2957" fill="#b7b7b7"></path></svg>